<svg width="17" height="17" viewBox="0 0 17 17" fill="none" xmlns="http://www.w3.org/2000/svg">
<path d="M2.38356 13.7084L0.975155 16.0583C0.758391 16.8454 1.58381 17.2422 2.03222 16.6948L4.10693 13.3692C7.22881 15.7893 11.3222 12.3584 12.6738 9.91586L10.0679 9.24322L13.6313 8.26048L14.7832 5.05301L12.8732 4.59338L15.0545 3.98342C16.2394 0.992009 16.0526 0.355618 15.7938 0.145034L15.708 0.0876983C15.4692 0.0656154 15.228 0.0962326 15.0047 0.183434C10.9597 1.76237 7.5477 4.66024 5.30724 8.42409L5.22376 8.56572C4.43626 9.79731 4.28185 10.2741 3.99296 11.095L3.62738 11.6675L2.38356 13.7084Z" fill="#F35935"/>
</svg>
